{
.appVersion = "3148";
.formatVersion = 3;
axes = (
{
name = Weight;
tag = wght;
}
);
classes = (
{
code = "colon.full semicolon.full dot-kata";
name = ntn;
notes = "ntn【中点】クラス

：；・";
},
{
code = "space enspace emspace space-han";
name = spc;
notes = "spc【スペース】クラス

スペース、enスペース、emスペース、全角スペース";
},
{
code = "whiteparenleft.full anglebracketleft blacklenticularbracketleft braceleft.full bracketleft.full cornerbracketleft dblanglebracketleft tortoiseshellbracketleft whitecornerbracketleft whitelenticularbracketleft whitesquarebracketleft whitetortoiseshellbracketleft parenleft.full quotedblleft quotedoubleprimeReversed quoteleft";
name = maf;
notes = "maf【前アキ-フル】クラス

｟〈【｛「《〔『〖〚〘［（“〝‘

※いずれも全角。";
},
{
code = "whiteparenleft.full.half anglebracketleft.half blacklenticularbracketleft.half braceleft.full.half bracketleft.full.half cornerbracketleft.half dblanglebracketleft.half tortoiseshellbracketleft.half whitecornerbracketleft.half whitelenticularbracketleft.half whitesquarebracketleft.half whitetortoiseshellbracketleft.half parenleft.full.half quotedblleft.half quotedoubleprimeReversed.half quoteleft.half";
name = mah;
notes = "mah【前アキ-ハーフ】クラス

｟〈【｛「《〔『〖〚〘［（“〝‘

※いずれもmafクラスをベースに幅のみを半角に変更したもの。";
},
{
code = "whiteparenright.full anglebracketright blacklenticularbracketright braceright.full bracketright.full cornerbracketright dblanglebracketright tortoiseshellbracketright whitecornerbracketright whitelenticularbracketright whitesquarebracketright whitetortoiseshellbracketright parenright.full lowquotedoubleprime quotedblright quotedoubleprime quoteright comma-han period-han comma.full period.full";
name = uaf;
notes = "uaf【後アキ-フル】クラス

｠〉】｝」》〕』〗〛〙］）〟”〞’
読点、句点、全角カンマ、全角ピリオド

※いずれも全角。";
},
{

glyphs = (
{
color = 5;
glyphname = .notdef;
lastChange = "2016-05-26 07:58:48 +0000";
layers = (
{
layerId = "3414DB1E-DCA6-4525-BBC7-543CEEA14C82";
shapes = (
{
closed = 1;
nodes = (
(900,-95,l),
(900,855,l),
(100,855,l),
(100,-95,l)
);
},
{
closed = 1;
nodes = (
(500,349,l),
(834,-55,l),
(166,-55,l)
);
},
{
closed = 1;
nodes = (
(140,784,l),
(474,380,l),
(140,-24,l)
);
},
{
closed = 1;
nodes = (
(526,380,l),
(860,784,l),
(860,-24,l)
);
},
{
closed = 1;
nodes = (
(166,815,l),
(834,815,l),
(500,411,l)
);
}
);
width = 1000;
}
);
},
{
color = 5;
glyphname = "comma-han";
lastChange = "2016-05-27 13:37:00 +0000";
layers = (
{
layerId = "3414DB1E-DCA6-4525-BBC7-543CEEA14C82";
shapes = (
{
closed = 1;
nodes = (
(303,-29,l),
(240,60,o),
(178,120,o),
(94,178,c),
(46,134,l),
(121,76,o),
(186,4,o),
(243,-78,c)
);
}
);
width = 1000;
}
);
note = cid01390;
unicode = 12289;
},
{
color = 5;
glyphname = "period-han";
lastChange = "2016-05-27 13:37:00 +0000";
layers = (
{
layerId = "3414DB1E-DCA6-4525-BBC7-543CEEA14C82";
shapes = (
{
closed = 1;
nodes = (
(273,-72,o),
(334,-10,o),
(334,66,cs),
(334,142,o),
(273,203,o),
(197,203,cs),
(121,203,o),
(59,142,o),
(59,66,cs),
(59,-10,o),
(121,-72,o),
(197,-72,cs)
);
},
{
closed = 1;
nodes = (
(147,-24,o),
(107,16,o),
(107,66,cs),
(107,116,o),
(147,156,o),
(197,156,cs),
(247,156,o),
(287,116,o),
(287,66,cs),
(287,16,o),
(247,-24,o),
(197,-24,cs)
);
}
);
width = 1000;
}
);
note = cid01391;
unicode = 12290;
},
{
color = 5;
glyphname = comma.full;
lastChange = "2016-05-27 13:37:00 +0000";
layers = (
{
layerId = "3414DB1E-DCA6-4525-BBC7-543CEEA14C82";
shapes = (
{
closed = 1;
nodes = (
(114,-111,o),
(142,-78,o),
(142,-13,cs),
(142,86,l),
(43,86,l),
(43,-13,l),
(101,-13,l),
(101,-56,o),
(89,-73,o),
(54,-76,c),
(54,-117,l)
);
}
);
width = 1000;
}
);
note = cid59003;
unicode = 65292;
},
{
color = 5;
glyphname = period.full;
lastChange = "2016-05-27 13:37:00 +0000";
layers = (
{
layerId = "3414DB1E-DCA6-4525-BBC7-543CEEA14C82";
shapes = (
{
closed = 1;
nodes = (
(141,-78,l),
(141,21,l),
(42,21,l),
(42,-78,l)
);
}
);
width = 1000;
}
);
note = cid59005;
unicode = 65294;
},
{
color = 5;
glyphname = whiteparenleft.full;
lastChange = "2016-05-27 13:37:00 +0000";
layers = (
{
layerId = "3414DB1E-DCA6-4525-BBC7-543CEEA14C82";
shapes = (
{
closed = 1;
nodes = (
(924,-81,l),
(807,91,o),
(763,217,o),
(763,380,cs),
(763,543,o),
(807,669,o),
(924,841,c),
(888,865,l),
(767,688,o),
(719,551,o),
(719,380,cs),
(719,209,o),
(766,72,o),
(887,-105,c)
);
},
{
closed = 1;
nodes = (
(793,-81,l),
(676,91,o),
(632,217,o),
(632,380,cs),
(632,543,o),
(676,669,o),
(793,841,c),
(757,865,l),
(636,688,o),
(588,551,o),
(588,380,cs),
(588,209,o),
(635,72,o),
(756,-105,c)
);
}
);
width = 1000;
}
);
note = cid59085;
unicode = 65375;
},
{
color = 5;
glyphname = anglebracketleft;
lastChange = "2016-05-27 13:37:00 +0000";
layers = (
{
layerId = "3414DB1E-DCA6-4525-BBC7-543CEEA14C82";
shapes = (
{
closed = 1;
nodes = (
(950,-84,l),
(651,380,l),
(950,844,l),
(904,874,l),
(586,380,l),
(585,380,l),
(904,-114,l)
);
}
);
width = 1000;
}
);
note = cid01397;
unicode = 12296;
},
{
color = 5;
glyphname = blacklenticularbracketleft;
lastChange = "2016-05-27 13:37:00 +0000";
layers = (
{
layerId = "3414DB1E-DCA6-4525-BBC7-543CEEA14C82";
shapes = (
{
closed = 1;
nodes = (
(942,-93,l),
(818,13,o),
(736,198,o),
(736,380,cs),
(736,562,o),
(818,747,o),
(942,853,c),
(638,853,l),
(638,-93,l)
);
}
);
width = 1000;
}
);
note = cid01405;
unicode = 12304;
},
{
color = 5;
glyphname = braceleft.full;
lastChange = "2016-05-27 13:37:00 +0000";
layers = (
{
layerId = "3414DB1E-DCA6-4525-BBC7-543CEEA14C82";
shapes = (
{
closed = 1;
nodes = (
(947,-67,l),
(827,-54,o),
(783,-24,o),
(783,67,cs),
(783,91,o),
(786,118,o),
(791,150,cs),
(796,181,o),
(799,209,o),
(799,234,cs),
(799,307,o),
(777,353,o),
(729,380,c),
(777,407,o),
(800,454,o),
(800,526,cs),
(800,551,o),
(797,579,o),
(792,610,cs),
(786,643,o),
(783,671,o),
(783,694,cs),
(783,785,o),
(828,814,o),
(947,827,c),
(941,883,l),
(790,867,o),
(727,815,o),
(727,692,cs),
(727,665,o),
(730,634,o),
(736,600,cs),
(741,570,o),
(744,545,o),
(744,523,cs),
(744,433,o),
(697,408,o),
(580,408,c),
(580,352,l),
(697,352,o),
(744,327,o),
(744,236,cs),
(744,214,o),
(741,189,o),
(736,159,cs),
(730,125,o),
(727,95,o),
(727,68,cs),
(727,-55,o),
(790,-107,o),
(941,-123,c)
);
}
);
width = 1000;
}
);
note = cid59082;
unicode = 65371;
},
{
color = 5;
glyphname = cornerbracketleft;
lastChange = "2016-05-27 13:37:00 +0000";
layers = (
{
layerId = "3414DB1E-DCA6-4525-BBC7-543CEEA14C82";
shapes = (
{
closed = 1;
nodes = (
(697,-17,l),
(697,797,l),
(942,797,l),
(942,853,l),
(641,853,l),
(641,-17,l)
);
}
);
width = 1000;
}
);
note = cid01401;
unicode = 12300;
},
{
color = 5;
glyphname = dblanglebracketleft;
lastChange = "2016-05-27 13:37:00 +0000";
layers = (
{
layerId = "3414DB1E-DCA6-4525-BBC7-543CEEA14C82";
shapes = (
{
closed = 1;
nodes = (
(960,-90,l),
(723,380,l),
(960,850,l),
(924,866,l),
(678,380,l),
(924,-106,l)
);
},
{
closed = 1;
nodes = (
(838,-90,l),
(601,380,l),
(838,850,l),
(802,866,l),
(556,380,l),
(802,-106,l)
);
}
);
width = 1000;
}
);
note = cid01399;
unicode = 12298;
},
{
color = 5;
glyphname = tortoiseshellbracketleft;
lastChange = "2016-05-27 13:37:00 +0000";
layers = (
{
layerId = "3414DB1E-DCA6-4525-BBC7-543CEEA14C82";
shapes = (
{
closed = 1;
nodes = (
(957,-60,l),
(697,94,l),
(697,666,l),
(957,820,l),
(928,868,l),
(641,698,l),
(641,62,l),
(928,-108,l)
);
}
);
width = 1000;
}
);
note = cid01409;
unicode = 12308;
},
{
color = 5;
glyphname = whitecornerbracketleft;
lastChange = "2016-05-27 13:37:00 +0000";
layers = (
{
layerId = "3414DB1E-DCA6-4525-BBC7-543CEEA14C82";
shapes = (
{
closed = 1;
nodes = (
(759,-17,l),
(759,696,l),
(942,696,l),
(942,853,l),
(600,853,l),
(600,-17,l)
);
},
{
closed = 1;
nodes = (
(638,815,l),
(904,815,l),
(904,734,l),
(721,734,l),
(721,21,l),
(638,21,l)
);
}
);
width = 1000;
}
);
note = cid01403;
unicode = 12302;
},
{
color = 5;
glyphname = whitelenticularbracketleft;
lastChange = "2016-05-27 13:37:00 +0000";
layers = (
{
layerId = "3414DB1E-DCA6-4525-BBC7-543CEEA14C82";
shapes = (
{
closed = 1;
nodes = (
(942,-93,l),
(818,13,o),
(736,198,o),
(736,380,cs),
(736,562,o),
(818,747,o),
(942,853,c),
(600,853,l),
(600,-93,l)
);
},
{
closed = 1;
nodes = (
(638,815,l),
(852,815,l),
(757,700,o),
(698,538,o),
(698,380,cs),
(698,222,o),
(757,60,o),
(852,-55,c),
(638,-55,l)
);
}
);
width = 1000;
}
);
note = cid01411;
unicode = 12310;
},
{
color = 5;
glyphname = whitesquarebracketleft;
lastChange = "2016-05-27 13:37:00 +0000";
layers = (
{
layerId = "3414DB1E-DCA6-4525-BBC7-543CEEA14C82";
shapes = (
{
closed = 1;
nodes = (
(942,-93,l),
(942,-55,l),
(759,-55,l),
(759,815,l),
(942,815,l),
(942,853,l),
(600,853,l),
(600,-93,l)
);
},
{
closed = 1;
nodes = (
(638,815,l),
(721,815,l),
(721,-55,l),
(638,-55,l)
);
}
);
width = 1000;
}
);
note = cid01415;
unicode = 12314;
},
{
color = 5;
glyphname = whitetortoiseshellbracketleft;
lastChange = "2016-05-27 13:37:00 +0000";
layers = (
{
layerId = "3414DB1E-DCA6-4525-BBC7-543CEEA14C82";
shapes = (
{
closed = 1;
nodes = (
(950,68,l),
(776,160,l),
(776,600,l),
(950,692,l),
(950,866,l),
(623,694,l),
(623,66,l),
(950,-106,l)
);
},
{
closed = 1;
nodes = (
(661,89,l),
(661,671,l),
(912,803,l),
(912,714,l),
(738,623,l),
(738,137,l),
(912,46,l),
(912,-43,l)
);
}
);
width = 1000;
}
);
note = cid01413;
unicode = 12312;
},
{
color = 5;
glyphname = bracketleft.full;
lastChange = "2016-05-27 13:37:00 +0000";
layers = (
{
layerId = "3414DB1E-DCA6-4525-BBC7-543CEEA14C82";
shapes = (
{
closed = 1;
nodes = (
(942,-93,l),
(942,-37,l),
(697,-37,l),
(697,797,l),
(942,797,l),
(942,853,l),
(641,853,l),
(641,-93,l)
);
}
);
width = 1000;
}
);
note = cid59050;
unicode = 65339;
},
{
color = 5;
glyphname = parenleft.full;
lastChange = "2016-05-27 13:37:00 +0000";
layers = (
{
layerId = "3414DB1E-DCA6-4525-BBC7-543CEEA14C82";
shapes = (
{
closed = 1;
nodes = (
(945,-59,l),
(786,91,o),
(757,287,o),
(757,380,cs),
(757,472,o),
(787,669,o),
(945,819,c),
(904,869,l),
(728,703,o),
(694,478,o),
(694,380,cs),
(694,282,o),
(728,57,o),
(904,-110,c)
);
}
);
width = 1000;
}
);
note = cid58999;
unicode = 65288;
},
{
color = 5;
glyphname = quotedoubleprimeReversed;
lastChange = "2016-05-27 13:37:00 +0000";
layers = (
{
layerId = "3414DB1E-DCA6-4525-BBC7-543CEEA14C82";
shapes = (
{
closed = 1;
nodes = (
(798,568,l),
(672,844,l),
(598,803,l),
(780,554,l)
);
},
{
closed = 1;
nodes = (
(959,569,l),
(852,843,l),
(776,804,l),
(938,556,l)
);
}
);
width = 1000;
}
);
note = cid01418;
unicode = 12317;
},
{
color = 5;
glyphname = quoteleft;
lastChange = "2016-05-27 13:37:00 +0000";
layers = (
{
layerId = "3414DB1E-DCA6-4525-BBC7-543CEEA14C82";
shapes = (
{
closed = 1;
nodes = (
(930,550,l),
(930,649,l),
(872,649,l),
(872,709,o),
(883,729,o),
(919,732,c),
(919,773,l),
(857,767,o),
(831,730,o),
(831,649,cs),
(831,550,l)
);
}
);
width = 1000;
}
);
note = cid00718;
unicode = 8216;
},
{
color = 5;
glyphname = semicolon.full;
lastChange = "2016-05-27 13:37:00 +0000";
layers = (
{
layerId = "3414DB1E-DCA6-4525-BBC7-543CEEA14C82";
shapes = (
{
closed = 1;
nodes = (
(523,-8,o),
(549,29,o),
(549,110,cs),
(549,209,l),
(450,209,l),
(450,110,l),
(508,110,l),
(508,50,o),
(497,30,o),
(461,27,c),
(461,-14,l)
);
},
{
closed = 1;
nodes = (
(549,551,l),
(549,650,l),
(450,650,l),
(450,551,l)
);
}
);
width = 1000;
}
);
note = cid59018;
unicode = 65307;
},
{
color = 5;
glyphname = "dot-kata";
lastChange = "2016-05-27 13:37:00 +0000";
layers = (
{
layerId = "3414DB1E-DCA6-4525-BBC7-543CEEA14C82";
shapes = (
{
closed = 1;
nodes = (
(557,285,o),
(595,328,o),
(595,380,cs),
(595,432,o),
(552,475,o),
(500,475,cs),
(448,475,o),
(405,432,o),
(405,380,cs),
(405,328,o),
(448,285,o),
(500,285,cs)
);
}
);
width = 1000;
}
);
note = cid01637;
unicode = 12539;
},
{
color = 5;
glyphname = quoteleft.vert;
lastChange = "2016-05-27 13:37:00 +0000";
layers = (
{
layerId = "3414DB1E-DCA6-4525-BBC7-543CEEA14C82";
shapes = (
{
closed = 1;
nodes = (
(976,167,l),
(902,208,l),
(776,-68,l),
(794,-82,l)
);
}
);
width = 1000;
}
);
note = cid00718;
},
